<mxfile host="app.diagrams.net" modified="2021-01-07T02:12:35.536Z" agent="5.0 (Windows)" etag="Nfav3I1FmWfLr4MuwP3W" version="14.1.8" type="github">
  <diagram id="HNXzUJpiXsBCVYIm8R1f" name="Page-1">
    <mxGraphModel dx="2249" dy="763" grid="1" gridSize="10" guides="1" tooltips="1" connect="1" arrows="1" fold="1" page="1" pageScale="1" pageWidth="827" pageHeight="1169" math="0" shadow="0">
      <root>
        <mxCell id="0" />
        <mxCell id="1" parent="0" />
        <mxCell id="hwGVLZ1fMh8FKVotkMYq-1" value="" style="rounded=0;whiteSpace=wrap;html=1;" parent="1" vertex="1">
          <mxGeometry width="480" height="270" as="geometry" />
        </mxCell>
        <mxCell id="hwGVLZ1fMh8FKVotkMYq-2" value="rgb" style="whiteSpace=wrap;html=1;aspect=fixed;" parent="1" vertex="1">
          <mxGeometry x="4" y="234" width="32" height="32" as="geometry" />
        </mxCell>
        <mxCell id="hwGVLZ1fMh8FKVotkMYq-3" value="exit" style="whiteSpace=wrap;html=1;aspect=fixed;" parent="1" vertex="1">
          <mxGeometry x="4" y="4" width="32" height="32" as="geometry" />
        </mxCell>
        <mxCell id="hwGVLZ1fMh8FKVotkMYq-4" value="4" style="text;html=1;strokeColor=none;fillColor=none;align=center;verticalAlign=middle;whiteSpace=wrap;rounded=0;" parent="1" vertex="1">
          <mxGeometry y="36" width="40" height="20" as="geometry" />
        </mxCell>
        <mxCell id="hwGVLZ1fMh8FKVotkMYq-5" value="left" style="whiteSpace=wrap;html=1;aspect=fixed;" parent="1" vertex="1">
          <mxGeometry x="4" y="119" width="32" height="32" as="geometry" />
        </mxCell>
        <mxCell id="hwGVLZ1fMh8FKVotkMYq-6" value="right" style="whiteSpace=wrap;html=1;aspect=fixed;" parent="1" vertex="1">
          <mxGeometry x="444" y="119" width="32" height="32" as="geometry" />
        </mxCell>
        <mxCell id="hwGVLZ1fMh8FKVotkMYq-7" value="exit" style="whiteSpace=wrap;html=1;aspect=fixed;" parent="1" vertex="1">
          <mxGeometry x="444" y="4" width="32" height="32" as="geometry" />
        </mxCell>
        <mxCell id="hwGVLZ1fMh8FKVotkMYq-8" value="home" style="whiteSpace=wrap;html=1;aspect=fixed;" parent="1" vertex="1">
          <mxGeometry x="444" y="4" width="32" height="32" as="geometry" />
        </mxCell>
        <mxCell id="hwGVLZ1fMh8FKVotkMYq-9" value="exit" style="whiteSpace=wrap;html=1;aspect=fixed;" parent="1" vertex="1">
          <mxGeometry x="4" y="4" width="32" height="32" as="geometry" />
        </mxCell>
        <mxCell id="hwGVLZ1fMh8FKVotkMYq-10" value="circle-x" style="whiteSpace=wrap;html=1;aspect=fixed;" parent="1" vertex="1">
          <mxGeometry x="444" y="234" width="32" height="32" as="geometry" />
        </mxCell>
        <mxCell id="hwGVLZ1fMh8FKVotkMYq-11" value="0" style="text;html=1;strokeColor=none;fillColor=none;align=center;verticalAlign=middle;whiteSpace=wrap;rounded=0;" parent="1" vertex="1">
          <mxGeometry x="440" y="36" width="40" height="20" as="geometry" />
        </mxCell>
        <mxCell id="IaFR81_jGzQTmbvEI6eo-1" value="12" style="text;html=1;strokeColor=none;fillColor=none;align=center;verticalAlign=middle;whiteSpace=wrap;rounded=0;" vertex="1" parent="1">
          <mxGeometry x="-4" y="270" width="40" height="20" as="geometry" />
        </mxCell>
      </root>
    </mxGraphModel>
  </diagram>
</mxfile>
